<?xml version="1.0" encoding="UTF-8"?>
<svg width="100pt" height="100pt" version="1.1" viewBox="0 0 700 700" xmlns="http://www.w3.org/2000/svg" xmlns:xlink="http://www.w3.org/1999/xlink">
 <defs>
  <symbol id="s" overflow="visible">
   <path d="m18.766-1.125c-0.96875 0.5-1.9805 0.875-3.0312 1.125-1.043 0.25781-2.1367 0.39062-3.2812 0.39062-3.3984 0-6.0898-0.94531-8.0781-2.8438-1.9922-1.9062-2.9844-4.4844-2.9844-7.7344 0-3.2578 0.99219-5.8359 2.9844-7.7344 1.9883-1.9062 4.6797-2.8594 8.0781-2.8594 1.1445 0 2.2383 0.13281 3.2812 0.39062 1.0508 0.25 2.0625 0.625 3.0312 1.125v4.2188c-0.98047-0.65625-1.9453-1.1406-2.8906-1.4531-0.94922-0.3125-1.9492-0.46875-3-0.46875-1.875 0-3.3516 0.60547-4.4219 1.8125-1.0742 1.1992-1.6094 2.8555-1.6094 4.9688 0 2.1055 0.53516 3.7617 1.6094 4.9688 1.0703 1.1992 2.5469 1.7969 4.4219 1.7969 1.0508 0 2.0508-0.14844 3-0.45312 0.94531-0.3125 1.9102-0.80078 2.8906-1.4688z"/>
  </symbol>
  <symbol id="c" overflow="visible">
   <path d="m13.734-11.141c-0.4375-0.19531-0.87109-0.34375-1.2969-0.4375-0.41797-0.10156-0.83984-0.15625-1.2656-0.15625-1.2617 0-2.2305 0.40625-2.9062 1.2188-0.67969 0.80469-1.0156 1.9531-1.0156 3.4531v7.0625h-4.8906v-15.312h4.8906v2.5156c0.625-1 1.3438-1.7266 2.1562-2.1875 0.82031-0.46875 1.8008-0.70312 2.9375-0.70312 0.16406 0 0.34375 0.011719 0.53125 0.03125 0.19531 0.011719 0.47656 0.039062 0.84375 0.078125z"/>
  </symbol>
  <symbol id="a" overflow="visible">
   <path d="m17.641-7.7031v1.4062h-11.453c0.125 1.1484 0.53906 2.0078 1.25 2.5781 0.70703 0.57422 1.7031 0.85938 2.9844 0.85938 1.0312 0 2.082-0.14844 3.1562-0.45312 1.082-0.3125 2.1914-0.77344 3.3281-1.3906v3.7656c-1.1562 0.4375-2.3125 0.76562-3.4688 0.98438-1.1562 0.22656-2.3125 0.34375-3.4688 0.34375-2.7734 0-4.9297-0.70312-6.4688-2.1094-1.5312-1.4062-2.2969-3.3789-2.2969-5.9219 0-2.5 0.75391-4.4609 2.2656-5.8906 1.5078-1.4375 3.582-2.1562 6.2188-2.1562 2.4062 0 4.332 0.73047 5.7812 2.1875 1.4453 1.4492 2.1719 3.3828 2.1719 5.7969zm-5.0312-1.625c0-0.92578-0.27344-1.6719-0.8125-2.2344-0.54297-0.57031-1.25-0.85938-2.125-0.85938-0.94922 0-1.7188 0.26562-2.3125 0.79688s-0.96484 1.2969-1.1094 2.2969z"/>
  </symbol>
  <symbol id="f" overflow="visible">
   <path d="m9.2188-6.8906c-1.0234 0-1.793 0.17188-2.3125 0.51562-0.51172 0.34375-0.76562 0.85547-0.76562 1.5312 0 0.625 0.20703 1.1172 0.625 1.4688 0.41406 0.34375 0.98828 0.51562 1.7188 0.51562 0.92578 0 1.7031-0.32812 2.3281-0.98438 0.63281-0.66406 0.95312-1.4922 0.95312-2.4844v-0.5625zm7.4688-1.8438v8.7344h-4.9219v-2.2656c-0.65625 0.92969-1.3984 1.6055-2.2188 2.0312-0.82422 0.41406-1.8242 0.625-3 0.625-1.5859 0-2.8711-0.45703-3.8594-1.375-0.99219-0.92578-1.4844-2.1289-1.4844-3.6094 0-1.7891 0.61328-3.1016 1.8438-3.9375 1.2383-0.84375 3.1797-1.2656 5.8281-1.2656h2.8906v-0.39062c0-0.76953-0.30859-1.332-0.92188-1.6875-0.61719-0.36328-1.5703-0.54688-2.8594-0.54688-1.0547 0-2.0312 0.10547-2.9375 0.3125-0.89844 0.21094-1.7305 0.52344-2.5 0.9375v-3.7344c1.0391-0.25 2.0859-0.44141 3.1406-0.57812 1.0625-0.13281 2.125-0.20312 3.1875-0.20312 2.7578 0 4.75 0.54688 5.9688 1.6406 1.2266 1.0859 1.8438 2.8555 1.8438 5.3125z"/>
  </symbol>
  <symbol id="b" overflow="visible">
   <path d="m7.7031-19.656v4.3438h5.0469v3.5h-5.0469v6.5c0 0.71094 0.14062 1.1875 0.42188 1.4375s0.83594 0.375 1.6719 0.375h2.5156v3.5h-4.1875c-1.9375 0-3.3125-0.39844-4.125-1.2031-0.80469-0.8125-1.2031-2.1797-1.2031-4.1094v-6.5h-2.4219v-3.5h2.4219v-4.3438z"/>
  </symbol>
  <symbol id="e" overflow="visible">
   <path d="m12.766-13.078v-8.2031h4.9219v21.281h-4.9219v-2.2188c-0.66797 0.90625-1.4062 1.5703-2.2188 1.9844s-1.7578 0.625-2.8281 0.625c-1.8867 0-3.4336-0.75-4.6406-2.25-1.2109-1.5-1.8125-3.4258-1.8125-5.7812 0-2.3633 0.60156-4.2969 1.8125-5.7969 1.207-1.5 2.7539-2.25 4.6406-2.25 1.0625 0 2 0.21484 2.8125 0.64062 0.82031 0.42969 1.5664 1.0859 2.2344 1.9688zm-3.2188 9.9219c1.0391 0 1.8359-0.37891 2.3906-1.1406 0.55078-0.76953 0.82812-1.8828 0.82812-3.3438 0-1.457-0.27734-2.5664-0.82812-3.3281-0.55469-0.76953-1.3516-1.1562-2.3906-1.1562-1.043 0-1.8398 0.38672-2.3906 1.1562-0.55469 0.76172-0.82812 1.8711-0.82812 3.3281 0 1.4609 0.27344 2.5742 0.82812 3.3438 0.55078 0.76172 1.3477 1.1406 2.3906 1.1406z"/>
  </symbol>
  <symbol id="i" overflow="visible">
   <path d="m10.5-3.1562c1.0508 0 1.8516-0.37891 2.4062-1.1406 0.55078-0.76953 0.82812-1.8828 0.82812-3.3438 0-1.457-0.27734-2.5664-0.82812-3.3281-0.55469-0.76953-1.3555-1.1562-2.4062-1.1562-1.0547 0-1.8594 0.38672-2.4219 1.1562-0.55469 0.77344-0.82812 1.8828-0.82812 3.3281 0 1.4492 0.27344 2.5586 0.82812 3.3281 0.5625 0.77344 1.3672 1.1562 2.4219 1.1562zm-3.25-9.9219c0.67578-0.88281 1.4219-1.5391 2.2344-1.9688 0.82031-0.42578 1.7656-0.64062 2.8281-0.64062 1.8945 0 3.4453 0.75 4.6562 2.25 1.207 1.5 1.8125 3.4336 1.8125 5.7969 0 2.3555-0.60547 4.2812-1.8125 5.7812-1.2109 1.5-2.7617 2.25-4.6562 2.25-1.0625 0-2.0078-0.21094-2.8281-0.625-0.8125-0.42578-1.5586-1.0859-2.2344-1.9844v2.2188h-4.8906v-21.281h4.8906z"/>
  </symbol>
  <symbol id="h" overflow="visible">
   <path d="m0.34375-15.312h4.8906l4.125 10.391 3.5-10.391h4.8906l-6.4375 16.766c-0.64844 1.6953-1.4023 2.8828-2.2656 3.5625-0.86719 0.6875-2 1.0312-3.4062 1.0312h-2.8438v-3.2188h1.5312c0.83203 0 1.4375-0.13672 1.8125-0.40625 0.38281-0.26172 0.67969-0.73047 0.89062-1.4062l0.14062-0.42188z"/>
  </symbol>
  <symbol id="g" overflow="visible">
   <path d="m2.5781-20.406h6.6875l4.6562 10.922 4.6719-10.922h6.6875v20.406h-4.9844v-14.938l-4.7031 11.016h-3.3281l-4.7031-11.016v14.938h-4.9844z"/>
  </symbol>
  <symbol id="r" overflow="visible">
   <path d="m12.422-21.281v3.2188h-2.7031c-0.6875 0-1.1719 0.125-1.4531 0.375-0.27344 0.25-0.40625 0.6875-0.40625 1.3125v1.0625h4.1875v3.5h-4.1875v11.812h-4.8906v-11.812h-2.4375v-3.5h2.4375v-1.0625c0-1.6641 0.46094-2.8984 1.3906-3.7031 0.92578-0.80078 2.3672-1.2031 4.3281-1.2031z"/>
  </symbol>
  <symbol id="d" overflow="visible">
   <path d="m9.6406-12.188c-1.0859 0-1.9141 0.39062-2.4844 1.1719-0.57422 0.78125-0.85938 1.9062-0.85938 3.375s0.28516 2.5938 0.85938 3.375c0.57031 0.77344 1.3984 1.1562 2.4844 1.1562 1.0625 0 1.875-0.38281 2.4375-1.1562 0.57031-0.78125 0.85938-1.9062 0.85938-3.375s-0.28906-2.5938-0.85938-3.375c-0.5625-0.78125-1.375-1.1719-2.4375-1.1719zm0-3.5c2.6328 0 4.6914 0.71484 6.1719 2.1406 1.4766 1.418 2.2188 3.3867 2.2188 5.9062 0 2.5117-0.74219 4.4805-2.2188 5.9062-1.4805 1.418-3.5391 2.125-6.1719 2.125-2.6484 0-4.7148-0.70703-6.2031-2.125-1.4922-1.4258-2.2344-3.3945-2.2344-5.9062 0-2.5195 0.74219-4.4883 2.2344-5.9062 1.4883-1.4258 3.5547-2.1406 6.2031-2.1406z"/>
  </symbol>
  <symbol id="q" overflow="visible">
   <path d="m16.547-12.766c0.61328-0.94531 1.3477-1.6719 2.2031-2.1719 0.85156-0.5 1.7891-0.75 2.8125-0.75 1.7578 0 3.0977 0.54688 4.0156 1.6406 0.92578 1.0859 1.3906 2.6562 1.3906 4.7188v9.3281h-4.9219v-7.9844-0.35938c0.007813-0.13281 0.015625-0.32031 0.015625-0.5625 0-1.082-0.16406-1.8633-0.48438-2.3438-0.3125-0.48828-0.82422-0.73438-1.5312-0.73438-0.92969 0-1.6484 0.38672-2.1562 1.1562-0.51172 0.76172-0.77344 1.8672-0.78125 3.3125v7.5156h-4.9219v-7.9844c0-1.6953-0.14844-2.7852-0.4375-3.2656-0.29297-0.48828-0.8125-0.73438-1.5625-0.73438-0.9375 0-1.6641 0.38672-2.1719 1.1562-0.51172 0.76172-0.76562 1.8594-0.76562 3.2969v7.5312h-4.9219v-15.312h4.9219v2.2344c0.60156-0.86328 1.2891-1.5156 2.0625-1.9531 0.78125-0.4375 1.6406-0.65625 2.5781-0.65625 1.0625 0 2 0.25781 2.8125 0.76562 0.8125 0.51172 1.4258 1.2305 1.8438 2.1562z"/>
  </symbol>
  <symbol id="p" overflow="visible">
   <path d="m17.75-9.3281v9.3281h-4.9219v-7.1094c0-1.3438-0.03125-2.2656-0.09375-2.7656s-0.16797-0.86719-0.3125-1.1094c-0.1875-0.3125-0.44922-0.55469-0.78125-0.73438-0.32422-0.17578-0.69531-0.26562-1.1094-0.26562-1.0234 0-1.8242 0.39844-2.4062 1.1875-0.58594 0.78125-0.875 1.8711-0.875 3.2656v7.5312h-4.8906v-21.281h4.8906v8.2031c0.73828-0.88281 1.5195-1.5391 2.3438-1.9688 0.83203-0.42578 1.75-0.64062 2.75-0.64062 1.7695 0 3.1133 0.54688 4.0312 1.6406 0.91406 1.0859 1.375 2.6562 1.375 4.7188z"/>
  </symbol>
  <symbol id="o" overflow="visible">
   <path d="m2.5781-20.406h5.875l7.4219 14v-14h4.9844v20.406h-5.875l-7.4219-14v14h-4.9844z"/>
  </symbol>
  <symbol id="n" overflow="visible">
   <path d="m2.1875-5.9688v-9.3438h4.9219v1.5312c0 0.83594-0.007813 1.875-0.015625 3.125-0.011719 1.25-0.015625 2.0859-0.015625 2.5 0 1.2422 0.03125 2.1328 0.09375 2.6719 0.070313 0.54297 0.17969 0.93359 0.32812 1.1719 0.20703 0.32422 0.47266 0.57422 0.79688 0.75 0.32031 0.16797 0.69141 0.25 1.1094 0.25 1.0195 0 1.8203-0.39062 2.4062-1.1719 0.58203-0.78125 0.875-1.8672 0.875-3.2656v-7.5625h4.8906v15.312h-4.8906v-2.2188c-0.74219 0.89844-1.5234 1.5586-2.3438 1.9844-0.82422 0.41406-1.7344 0.625-2.7344 0.625-1.7617 0-3.1055-0.53906-4.0312-1.625-0.92969-1.082-1.3906-2.6602-1.3906-4.7344z"/>
  </symbol>
  <symbol id="m" overflow="visible">
   <path d="m17.75-9.3281v9.3281h-4.9219v-7.1406c0-1.3203-0.03125-2.2344-0.09375-2.7344s-0.16797-0.86719-0.3125-1.1094c-0.1875-0.3125-0.44922-0.55469-0.78125-0.73438-0.32422-0.17578-0.69531-0.26562-1.1094-0.26562-1.0234 0-1.8242 0.39844-2.4062 1.1875-0.58594 0.78125-0.875 1.8711-0.875 3.2656v7.5312h-4.8906v-15.312h4.8906v2.2344c0.73828-0.88281 1.5195-1.5391 2.3438-1.9688 0.83203-0.42578 1.75-0.64062 2.75-0.64062 1.7695 0 3.1133 0.54688 4.0312 1.6406 0.91406 1.0859 1.375 2.6562 1.375 4.7188z"/>
  </symbol>
  <symbol id="l" overflow="visible">
   <path d="m2.5781-20.406h8.7344c2.5938 0 4.582 0.57812 5.9688 1.7344 1.3945 1.1484 2.0938 2.7891 2.0938 4.9219 0 2.1367-0.69922 3.7812-2.0938 4.9375-1.3867 1.1562-3.375 1.7344-5.9688 1.7344h-3.4844v7.0781h-5.25zm5.25 3.8125v5.7031h2.9219c1.0195 0 1.8047-0.25 2.3594-0.75 0.5625-0.5 0.84375-1.2031 0.84375-2.1094 0-0.91406-0.28125-1.6172-0.84375-2.1094-0.55469-0.48828-1.3398-0.73438-2.3594-0.73438z"/>
  </symbol>
  <symbol id="k" overflow="visible">
   <path d="m2.3594-15.312h4.8906v15.031c0 2.0508-0.49609 3.6172-1.4844 4.7031-0.98047 1.082-2.4062 1.625-4.2812 1.625h-2.4219v-3.2188h0.85938c0.92578 0 1.5625-0.21094 1.9062-0.625 0.35156-0.41797 0.53125-1.2461 0.53125-2.4844zm0-5.9688h4.8906v4h-4.8906z"/>
  </symbol>
  <symbol id="j" overflow="visible">
   <path d="m14.719-14.828v3.9844c-0.65625-0.45703-1.3242-0.79688-2-1.0156-0.66797-0.21875-1.3594-0.32812-2.0781-0.32812-1.3672 0-2.4336 0.40234-3.2031 1.2031-0.76172 0.79297-1.1406 1.9062-1.1406 3.3438 0 1.4297 0.37891 2.543 1.1406 3.3438 0.76953 0.79297 1.8359 1.1875 3.2031 1.1875 0.75781 0 1.4844-0.10938 2.1719-0.32812 0.6875-0.22656 1.3203-0.56641 1.9062-1.0156v4c-0.76172 0.28125-1.5391 0.48828-2.3281 0.625-0.78125 0.14453-1.5742 0.21875-2.375 0.21875-2.7617 0-4.9219-0.70703-6.4844-2.125-1.5547-1.4141-2.3281-3.3828-2.3281-5.9062 0-2.5312 0.77344-4.5039 2.3281-5.9219 1.5625-1.4141 3.7227-2.125 6.4844-2.125 0.80078 0 1.5938 0.074219 2.375 0.21875 0.78125 0.13672 1.5547 0.35156 2.3281 0.64062z"/>
  </symbol>
 </defs>
 <g>
  <path d="m131.36 311.38c2.5352 0.11328 256.07 12.836 433.07 189.84 1.0938 1.0938 2.5273 1.6406 3.9609 1.6406 1.4336 0 2.8672-0.54688 3.9609-1.6406 2.1914-2.1914 2.1914-5.7305 0-7.918-24.18-24.18-49.766-45.32-75.941-63.852 23.84-8.4336 48.43-15.875 73.328-22.035 3-0.74609 4.832-3.7812 4.0898-6.7812-0.74609-3.0078-3.7852-4.8398-6.7812-4.0898-27.898 6.9062-55.469 15.332-82 25.039-14.113-9.5273-28.352-18.301-42.617-26.398 40.852-15.398 83.523-27.512 127.03-35.945 3.0352-0.58984 5.0195-3.5273 4.4297-6.5625-0.58984-3.0352-3.4961-5.0273-6.5625-4.4336-47.281 9.168-93.621 22.566-137.74 39.828-16.262-8.7695-32.492-16.684-48.508-23.801 74.898-30.98 143.19-44.883 188.07-51.07 3.0625-0.42578 5.207-3.2461 4.7812-6.3125-0.41406-3.0586-3.1797-5.2148-6.3125-4.7812-47.539 6.5508-120.92 21.598-200.83 56.012-18.664-7.8281-36.953-14.621-54.578-20.492 132.99-62.008 255.16-67.891 256.41-67.938 3.0898-0.12891 5.4883-2.7422 5.3594-5.8281-0.12891-3.0898-2.7656-5.3984-5.8281-5.3594-1.3086 0.054688-132.25 6.2812-271.49 74.129-92.848-28.844-163.5-32.375-164.84-32.43-3.0234-0.078125-5.6992 2.2695-5.8281 5.3594-0.12891 3.0781 2.2695 5.6875 5.3594 5.8164z"/>
  <path d="m485.05 502.88c1.6289 0 3.2422-0.70703 4.3438-2.0664 1.9531-2.4023 1.5898-5.9297-0.8125-7.8789-128.78-104.78-278.46-138.4-356.22-149.13-3.1289-0.4375-5.8984 1.7266-6.3125 4.7812-0.42578 3.0625 1.7188 5.8906 4.7812 6.3125 76.602 10.562 224.02 43.664 350.69 146.72 1.0469 0.85156 2.2969 1.2617 3.5352 1.2617z"/>
  <path d="m130.54 400.95c65.703 12.734 163.7 40.602 257.43 101.03 0.94141 0.60547 1.9883 0.89453 3.0312 0.89453 1.8359 0 3.6406-0.90625 4.7148-2.5664 1.6758-2.5977 0.92578-6.0664-1.6758-7.7383-95.234-61.402-194.7-89.695-261.38-102.62-3.0234-0.56641-5.9688 1.3984-6.5625 4.4336-0.58984 3.0391 1.3984 5.9727 4.4336 6.5664z"/>
  <path d="m130.26 449.12c52.578 13.004 102.77 31.047 149.17 53.621 0.78906 0.37891 1.625 0.56641 2.4453 0.56641 2.0781 0 4.0781-1.1602 5.0391-3.1484 1.3477-2.7812 0.19531-6.1328-2.5859-7.4883-47.105-22.914-98.039-41.223-151.38-54.414-2.9961-0.74609-6.0352 1.0859-6.7812 4.0898-0.75 2.9922 1.0859 6.0273 4.0898 6.7734z"/>
  <path d="m396.57 152.21c0-27.848-22.656-50.508-50.512-50.508-27.848 0-50.508 22.656-50.508 50.508 0 27.848 22.656 50.508 50.508 50.508 27.855-0.007812 50.512-22.664 50.512-50.508zm-50.504 39.301c-21.672 0-39.305-17.629-39.305-39.305 0-21.676 17.629-39.305 39.305-39.305 21.676 0 39.312 17.629 39.312 39.305-0.003906 21.676-17.641 39.305-39.312 39.305z"/>
  <path d="m346.07 85.676c3.0977 0 5.6016-2.5078 5.6016-5.6016v-19.164c0-3.0898-2.5039-5.6016-5.6016-5.6016-3.0977 0-5.6016 2.5078-5.6016 5.6016v19.164c0 3.0898 2.5039 5.6016 5.6016 5.6016z"/>
  <path d="m311.61 88.586c0.92969 2.0898 2.9727 3.3281 5.125 3.3281 0.76172 0 1.5273-0.15625 2.2695-0.48828 2.8281-1.2617 4.0938-4.5625 2.8438-7.3906l-7.7969-17.504c-1.2617-2.8242-4.5586-4.082-7.3906-2.8398-2.8281 1.2617-4.0938 4.5625-2.8438 7.3906z"/>
  <path d="m288.72 108.1c1.0625 0.96484 2.4062 1.4375 3.7461 1.4375 1.5273 0 3.0586-0.62109 4.1602-1.8555 2.0664-2.2969 1.8828-5.8359-0.41406-7.9062l-14.242-12.824c-2.2852-2.0664-5.8398-1.8945-7.9062 0.41406-2.0664 2.2969-1.8828 5.8359 0.41406 7.9062z"/>
  <path d="m257.5 129.33 18.227 5.9258c0.57812 0.18359 1.1523 0.27344 1.7305 0.27344 2.3633 0 4.5547-1.5078 5.3242-3.8711 0.95703-2.9414-0.65625-6.0977-3.6016-7.0547l-18.227-5.9258c-2.9414-0.94531-6.0977 0.65625-7.0547 3.5938-0.94922 2.9414 0.66406 6.0977 3.6016 7.0586z"/>
  <path d="m255.27 167.36c0.19141 0 0.39062-0.011719 0.58984-0.027344l19.059-2c3.0742-0.32422 5.3047-3.0781 4.9844-6.1562-0.32422-3.0703-3.0391-5.3047-6.1562-4.9844l-19.059 2c-3.0742 0.32422-5.3047 3.0781-4.9844 6.1562 0.30859 2.875 2.7305 5.0117 5.5664 5.0117z"/>
  <path d="m288.45 185.48c-1.5508-2.6836-4.9844-3.5938-7.6484-2.0508l-16.598 9.582c-2.6836 1.5469-3.6016 4.9727-2.0508 7.6484 1.043 1.7969 2.918 2.8008 4.8555 2.8008 0.95313 0 1.9141-0.24219 2.793-0.75l16.598-9.582c2.6797-1.5508 3.5977-4.9727 2.0508-7.6484z"/>
  <path d="m292.4 231.68c1.7344 0 3.4375-0.80078 4.5352-2.3086l11.266-15.508c1.8203-2.5039 1.2656-6.0039-1.2383-7.8242-2.5039-1.8203-6.0078-1.2656-7.8164 1.2383l-11.266 15.508c-1.8203 2.5039-1.2656 6.0039 1.2383 7.8242 0.99219 0.72656 2.1406 1.0703 3.2812 1.0703z"/>
  <path d="m325.59 221.61-3.9844 18.742c-0.63672 3.0234 1.2891 5.9961 4.3164 6.6406 0.39062 0.085937 0.78516 0.125 1.1719 0.125 2.5859 0 4.9102-1.8047 5.4766-4.4336l3.9883-18.75c0.63672-3.0234-1.2891-5.9961-4.3164-6.6406-3.0391-0.65234-6 1.2852-6.6523 4.3164z"/>
  <path d="m359.91 217.3c-3.0234 0.64453-4.957 3.6172-4.3164 6.6406l3.9883 18.75c0.56641 2.6328 2.8906 4.4336 5.4766 4.4336 0.38672 0 0.77734-0.039063 1.1719-0.125 3.0234-0.64453 4.957-3.6172 4.3164-6.6406l-3.9883-18.75c-0.65625-3.0273-3.6406-4.9688-6.6484-4.3086z"/>
  <path d="m395.21 229.36c1.0938 1.5078 2.8008 2.3086 4.5352 2.3086 1.1406 0 2.2891-0.34766 3.2891-1.0703 2.4961-1.8203 3.0586-5.3203 1.2383-7.8242l-11.266-15.508c-1.8125-2.4961-5.3125-3.0508-7.8164-1.2383-2.4961 1.8203-3.0586 5.3203-1.2383 7.8242z"/>
  <path d="m422.34 202.71c0.87891 0.50781 1.8438 0.75 2.793 0.75 1.9375 0 3.8203-1.0039 4.8555-2.8008 1.5469-2.6836 0.62891-6.1055-2.0508-7.6484l-16.598-9.582c-2.6758-1.5469-6.1055-0.62891-7.6484 2.0508-1.5469 2.6758-0.62891 6.1055 2.0508 7.6484z"/>
  <path d="m418.4 154.18c-3.0469-0.30078-5.8281 1.9023-6.1562 4.9844-0.32422 3.0742 1.9102 5.8359 4.9844 6.1562l19.059 2c0.19531 0.015625 0.39062 0.027343 0.58984 0.027343 2.832 0 5.2578-2.1406 5.5625-5.0195 0.32422-3.0742-1.9102-5.8359-4.9844-6.1562z"/>
  <path d="m409.36 131.65c0.77344 2.3633 2.9609 3.8711 5.3242 3.8711 0.57812 0 1.1523-0.089844 1.7305-0.27344l18.227-5.9258c2.9414-0.95703 4.5547-4.1172 3.6016-7.0547-0.95703-2.9414-4.1211-4.5469-7.0547-3.5938l-18.227 5.9258c-2.9492 0.94922-4.5586 4.1094-3.6016 7.0508z"/>
  <path d="m399.68 109.54c1.332 0 2.6836-0.47656 3.7461-1.4375l14.242-12.824c2.2969-2.0703 2.4805-5.6094 0.41406-7.9062-2.0664-2.3086-5.6211-2.4883-7.9062-0.41406l-14.242 12.824c-2.2969 2.0703-2.4805 5.6094-0.41406 7.9062 1.1055 1.2305 2.6328 1.8516 4.1602 1.8516z"/>
  <path d="m373.14 91.426c0.73828 0.33203 1.5117 0.48828 2.2695 0.48828 2.1523 0 4.1953-1.2383 5.125-3.3281l7.7969-17.504c1.2539-2.8281-0.015625-6.1367-2.8438-7.3906-2.8242-1.25-6.1328 0.015625-7.3906 2.8398l-7.7969 17.504c-1.2617 2.8281 0.011719 6.1367 2.8398 7.3906z"/>
 </g>
</svg>
