<?xml version="1.0" encoding="UTF-8"?>
<svg width="700pt" height="700pt" version="1.1" viewBox="0 0 700 700" xmlns="http://www.w3.org/2000/svg" xmlns:xlink="http://www.w3.org/1999/xlink">
 <defs>
  <symbol id="u" overflow="visible">
   <path d="m18.766-1.125c-0.96875 0.5-1.9805 0.875-3.0312 1.125-1.043 0.25781-2.1367 0.39062-3.2812 0.39062-3.3984 0-6.0898-0.94531-8.0781-2.8438-1.9922-1.9062-2.9844-4.4844-2.9844-7.7344 0-3.2578 0.99219-5.8359 2.9844-7.7344 1.9883-1.9062 4.6797-2.8594 8.0781-2.8594 1.1445 0 2.2383 0.13281 3.2812 0.39062 1.0508 0.25 2.0625 0.625 3.0312 1.125v4.2188c-0.98047-0.65625-1.9453-1.1406-2.8906-1.4531-0.94922-0.3125-1.9492-0.46875-3-0.46875-1.875 0-3.3516 0.60547-4.4219 1.8125-1.0742 1.1992-1.6094 2.8555-1.6094 4.9688 0 2.1055 0.53516 3.7617 1.6094 4.9688 1.0703 1.1992 2.5469 1.7969 4.4219 1.7969 1.0508 0 2.0508-0.14844 3-0.45312 0.94531-0.3125 1.9102-0.80078 2.8906-1.4688z"/>
  </symbol>
  <symbol id="c" overflow="visible">
   <path d="m13.734-11.141c-0.4375-0.19531-0.87109-0.34375-1.2969-0.4375-0.41797-0.10156-0.83984-0.15625-1.2656-0.15625-1.2617 0-2.2305 0.40625-2.9062 1.2188-0.67969 0.80469-1.0156 1.9531-1.0156 3.4531v7.0625h-4.8906v-15.312h4.8906v2.5156c0.625-1 1.3438-1.7266 2.1562-2.1875 0.82031-0.46875 1.8008-0.70312 2.9375-0.70312 0.16406 0 0.34375 0.011719 0.53125 0.03125 0.19531 0.011719 0.47656 0.039062 0.84375 0.078125z"/>
  </symbol>
  <symbol id="a" overflow="visible">
   <path d="m17.641-7.7031v1.4062h-11.453c0.125 1.1484 0.53906 2.0078 1.25 2.5781 0.70703 0.57422 1.7031 0.85938 2.9844 0.85938 1.0312 0 2.082-0.14844 3.1562-0.45312 1.082-0.3125 2.1914-0.77344 3.3281-1.3906v3.7656c-1.1562 0.4375-2.3125 0.76562-3.4688 0.98438-1.1562 0.22656-2.3125 0.34375-3.4688 0.34375-2.7734 0-4.9297-0.70312-6.4688-2.1094-1.5312-1.4062-2.2969-3.3789-2.2969-5.9219 0-2.5 0.75391-4.4609 2.2656-5.8906 1.5078-1.4375 3.582-2.1562 6.2188-2.1562 2.4062 0 4.332 0.73047 5.7812 2.1875 1.4453 1.4492 2.1719 3.3828 2.1719 5.7969zm-5.0312-1.625c0-0.92578-0.27344-1.6719-0.8125-2.2344-0.54297-0.57031-1.25-0.85938-2.125-0.85938-0.94922 0-1.7188 0.26562-2.3125 0.79688s-0.96484 1.2969-1.1094 2.2969z"/>
  </symbol>
  <symbol id="g" overflow="visible">
   <path d="m9.2188-6.8906c-1.0234 0-1.793 0.17188-2.3125 0.51562-0.51172 0.34375-0.76562 0.85547-0.76562 1.5312 0 0.625 0.20703 1.1172 0.625 1.4688 0.41406 0.34375 0.98828 0.51562 1.7188 0.51562 0.92578 0 1.7031-0.32812 2.3281-0.98438 0.63281-0.66406 0.95312-1.4922 0.95312-2.4844v-0.5625zm7.4688-1.8438v8.7344h-4.9219v-2.2656c-0.65625 0.92969-1.3984 1.6055-2.2188 2.0312-0.82422 0.41406-1.8242 0.625-3 0.625-1.5859 0-2.8711-0.45703-3.8594-1.375-0.99219-0.92578-1.4844-2.1289-1.4844-3.6094 0-1.7891 0.61328-3.1016 1.8438-3.9375 1.2383-0.84375 3.1797-1.2656 5.8281-1.2656h2.8906v-0.39062c0-0.76953-0.30859-1.332-0.92188-1.6875-0.61719-0.36328-1.5703-0.54688-2.8594-0.54688-1.0547 0-2.0312 0.10547-2.9375 0.3125-0.89844 0.21094-1.7305 0.52344-2.5 0.9375v-3.7344c1.0391-0.25 2.0859-0.44141 3.1406-0.57812 1.0625-0.13281 2.125-0.20312 3.1875-0.20312 2.7578 0 4.75 0.54688 5.9688 1.6406 1.2266 1.0859 1.8438 2.8555 1.8438 5.3125z"/>
  </symbol>
  <symbol id="b" overflow="visible">
   <path d="m7.7031-19.656v4.3438h5.0469v3.5h-5.0469v6.5c0 0.71094 0.14062 1.1875 0.42188 1.4375s0.83594 0.375 1.6719 0.375h2.5156v3.5h-4.1875c-1.9375 0-3.3125-0.39844-4.125-1.2031-0.80469-0.8125-1.2031-2.1797-1.2031-4.1094v-6.5h-2.4219v-3.5h2.4219v-4.3438z"/>
  </symbol>
  <symbol id="k" overflow="visible">
   <path d="m12.766-13.078v-8.2031h4.9219v21.281h-4.9219v-2.2188c-0.66797 0.90625-1.4062 1.5703-2.2188 1.9844s-1.7578 0.625-2.8281 0.625c-1.8867 0-3.4336-0.75-4.6406-2.25-1.2109-1.5-1.8125-3.4258-1.8125-5.7812 0-2.3633 0.60156-4.2969 1.8125-5.7969 1.207-1.5 2.7539-2.25 4.6406-2.25 1.0625 0 2 0.21484 2.8125 0.64062 0.82031 0.42969 1.5664 1.0859 2.2344 1.9688zm-3.2188 9.9219c1.0391 0 1.8359-0.37891 2.3906-1.1406 0.55078-0.76953 0.82812-1.8828 0.82812-3.3438 0-1.457-0.27734-2.5664-0.82812-3.3281-0.55469-0.76953-1.3516-1.1562-2.3906-1.1562-1.043 0-1.8398 0.38672-2.3906 1.1562-0.55469 0.76172-0.82812 1.8711-0.82812 3.3281 0 1.4609 0.27344 2.5742 0.82812 3.3438 0.55078 0.76172 1.3477 1.1406 2.3906 1.1406z"/>
  </symbol>
  <symbol id="j" overflow="visible">
   <path d="m10.5-3.1562c1.0508 0 1.8516-0.37891 2.4062-1.1406 0.55078-0.76953 0.82812-1.8828 0.82812-3.3438 0-1.457-0.27734-2.5664-0.82812-3.3281-0.55469-0.76953-1.3555-1.1562-2.4062-1.1562-1.0547 0-1.8594 0.38672-2.4219 1.1562-0.55469 0.77344-0.82812 1.8828-0.82812 3.3281 0 1.4492 0.27344 2.5586 0.82812 3.3281 0.5625 0.77344 1.3672 1.1562 2.4219 1.1562zm-3.25-9.9219c0.67578-0.88281 1.4219-1.5391 2.2344-1.9688 0.82031-0.42578 1.7656-0.64062 2.8281-0.64062 1.8945 0 3.4453 0.75 4.6562 2.25 1.207 1.5 1.8125 3.4336 1.8125 5.7969 0 2.3555-0.60547 4.2812-1.8125 5.7812-1.2109 1.5-2.7617 2.25-4.6562 2.25-1.0625 0-2.0078-0.21094-2.8281-0.625-0.8125-0.42578-1.5586-1.0859-2.2344-1.9844v2.2188h-4.8906v-21.281h4.8906z"/>
  </symbol>
  <symbol id="f" overflow="visible">
   <path d="m0.34375-15.312h4.8906l4.125 10.391 3.5-10.391h4.8906l-6.4375 16.766c-0.64844 1.6953-1.4023 2.8828-2.2656 3.5625-0.86719 0.6875-2 1.0312-3.4062 1.0312h-2.8438v-3.2188h1.5312c0.83203 0 1.4375-0.13672 1.8125-0.40625 0.38281-0.26172 0.67969-0.73047 0.89062-1.4062l0.14062-0.42188z"/>
  </symbol>
  <symbol id="i" overflow="visible">
   <path d="m14.953-3.7188h-8.2188l-1.3125 3.7188h-5.2812l7.5625-20.406h6.2656l7.5625 20.406h-5.2812zm-6.9062-3.7812h5.5781l-2.7812-8.125z"/>
  </symbol>
  <symbol id="h" overflow="visible">
   <path d="m2.3594-15.312h4.8906v15.312h-4.8906zm0-5.9688h4.8906v4h-4.8906z"/>
  </symbol>
  <symbol id="e" overflow="visible">
   <path d="m17.75-9.3281v9.3281h-4.9219v-7.1406c0-1.3203-0.03125-2.2344-0.09375-2.7344s-0.16797-0.86719-0.3125-1.1094c-0.1875-0.3125-0.44922-0.55469-0.78125-0.73438-0.32422-0.17578-0.69531-0.26562-1.1094-0.26562-1.0234 0-1.8242 0.39844-2.4062 1.1875-0.58594 0.78125-0.875 1.8711-0.875 3.2656v7.5312h-4.8906v-15.312h4.8906v2.2344c0.73828-0.88281 1.5195-1.5391 2.3438-1.9688 0.83203-0.42578 1.75-0.64062 2.75-0.64062 1.7695 0 3.1133 0.54688 4.0312 1.6406 0.91406 1.0859 1.375 2.6562 1.375 4.7188z"/>
  </symbol>
  <symbol id="d" overflow="visible">
   <path d="m9.6406-12.188c-1.0859 0-1.9141 0.39062-2.4844 1.1719-0.57422 0.78125-0.85938 1.9062-0.85938 3.375s0.28516 2.5938 0.85938 3.375c0.57031 0.77344 1.3984 1.1562 2.4844 1.1562 1.0625 0 1.875-0.38281 2.4375-1.1562 0.57031-0.78125 0.85938-1.9062 0.85938-3.375s-0.28906-2.5938-0.85938-3.375c-0.5625-0.78125-1.375-1.1719-2.4375-1.1719zm0-3.5c2.6328 0 4.6914 0.71484 6.1719 2.1406 1.4766 1.418 2.2188 3.3867 2.2188 5.9062 0 2.5117-0.74219 4.4805-2.2188 5.9062-1.4805 1.418-3.5391 2.125-6.1719 2.125-2.6484 0-4.7148-0.70703-6.2031-2.125-1.4922-1.4258-2.2344-3.3945-2.2344-5.9062 0-2.5195 0.74219-4.4883 2.2344-5.9062 1.4883-1.4258 3.5547-2.1406 6.2031-2.1406z"/>
  </symbol>
  <symbol id="t" overflow="visible">
   <path d="m7.8281-16.438v12.453h1.8906c2.1562 0 3.8008-0.53125 4.9375-1.5938 1.1328-1.0625 1.7031-2.6133 1.7031-4.6562 0-2.0195-0.57031-3.5547-1.7031-4.6094-1.125-1.0625-2.7734-1.5938-4.9375-1.5938zm-5.25-3.9688h5.5469c3.0938 0 5.3984 0.21875 6.9219 0.65625 1.5195 0.4375 2.8203 1.1875 3.9062 2.25 0.95703 0.91797 1.6641 1.9805 2.125 3.1875 0.46875 1.1992 0.70312 2.5586 0.70312 4.0781 0 1.543-0.23438 2.918-0.70312 4.125-0.46094 1.2109-1.168 2.2773-2.125 3.2031-1.0938 1.0547-2.4062 1.8047-3.9375 2.25-1.5312 0.4375-3.8281 0.65625-6.8906 0.65625h-5.5469z"/>
  </symbol>
  <symbol id="s" overflow="visible">
   <path d="m12.422-21.281v3.2188h-2.7031c-0.6875 0-1.1719 0.125-1.4531 0.375-0.27344 0.25-0.40625 0.6875-0.40625 1.3125v1.0625h4.1875v3.5h-4.1875v11.812h-4.8906v-11.812h-2.4375v-3.5h2.4375v-1.0625c0-1.6641 0.46094-2.8984 1.3906-3.7031 0.92578-0.80078 2.3672-1.2031 4.3281-1.2031z"/>
  </symbol>
  <symbol id="r" overflow="visible">
   <path d="m16.547-12.766c0.61328-0.94531 1.3477-1.6719 2.2031-2.1719 0.85156-0.5 1.7891-0.75 2.8125-0.75 1.7578 0 3.0977 0.54688 4.0156 1.6406 0.92578 1.0859 1.3906 2.6562 1.3906 4.7188v9.3281h-4.9219v-7.9844-0.35938c0.007813-0.13281 0.015625-0.32031 0.015625-0.5625 0-1.082-0.16406-1.8633-0.48438-2.3438-0.3125-0.48828-0.82422-0.73438-1.5312-0.73438-0.92969 0-1.6484 0.38672-2.1562 1.1562-0.51172 0.76172-0.77344 1.8672-0.78125 3.3125v7.5156h-4.9219v-7.9844c0-1.6953-0.14844-2.7852-0.4375-3.2656-0.29297-0.48828-0.8125-0.73438-1.5625-0.73438-0.9375 0-1.6641 0.38672-2.1719 1.1562-0.51172 0.76172-0.76562 1.8594-0.76562 3.2969v7.5312h-4.9219v-15.312h4.9219v2.2344c0.60156-0.86328 1.2891-1.5156 2.0625-1.9531 0.78125-0.4375 1.6406-0.65625 2.5781-0.65625 1.0625 0 2 0.25781 2.8125 0.76562 0.8125 0.51172 1.4258 1.2305 1.8438 2.1562z"/>
  </symbol>
  <symbol id="q" overflow="visible">
   <path d="m17.75-9.3281v9.3281h-4.9219v-7.1094c0-1.3438-0.03125-2.2656-0.09375-2.7656s-0.16797-0.86719-0.3125-1.1094c-0.1875-0.3125-0.44922-0.55469-0.78125-0.73438-0.32422-0.17578-0.69531-0.26562-1.1094-0.26562-1.0234 0-1.8242 0.39844-2.4062 1.1875-0.58594 0.78125-0.875 1.8711-0.875 3.2656v7.5312h-4.8906v-21.281h4.8906v8.2031c0.73828-0.88281 1.5195-1.5391 2.3438-1.9688 0.83203-0.42578 1.75-0.64062 2.75-0.64062 1.7695 0 3.1133 0.54688 4.0312 1.6406 0.91406 1.0859 1.375 2.6562 1.375 4.7188z"/>
  </symbol>
  <symbol id="p" overflow="visible">
   <path d="m2.5781-20.406h5.875l7.4219 14v-14h4.9844v20.406h-5.875l-7.4219-14v14h-4.9844z"/>
  </symbol>
  <symbol id="o" overflow="visible">
   <path d="m2.1875-5.9688v-9.3438h4.9219v1.5312c0 0.83594-0.007813 1.875-0.015625 3.125-0.011719 1.25-0.015625 2.0859-0.015625 2.5 0 1.2422 0.03125 2.1328 0.09375 2.6719 0.070313 0.54297 0.17969 0.93359 0.32812 1.1719 0.20703 0.32422 0.47266 0.57422 0.79688 0.75 0.32031 0.16797 0.69141 0.25 1.1094 0.25 1.0195 0 1.8203-0.39062 2.4062-1.1719 0.58203-0.78125 0.875-1.8672 0.875-3.2656v-7.5625h4.8906v15.312h-4.8906v-2.2188c-0.74219 0.89844-1.5234 1.5586-2.3438 1.9844-0.82422 0.41406-1.7344 0.625-2.7344 0.625-1.7617 0-3.1055-0.53906-4.0312-1.625-0.92969-1.082-1.3906-2.6602-1.3906-4.7344z"/>
  </symbol>
  <symbol id="n" overflow="visible">
   <path d="m2.5781-20.406h8.7344c2.5938 0 4.582 0.57812 5.9688 1.7344 1.3945 1.1484 2.0938 2.7891 2.0938 4.9219 0 2.1367-0.69922 3.7812-2.0938 4.9375-1.3867 1.1562-3.375 1.7344-5.9688 1.7344h-3.4844v7.0781h-5.25zm5.25 3.8125v5.7031h2.9219c1.0195 0 1.8047-0.25 2.3594-0.75 0.5625-0.5 0.84375-1.2031 0.84375-2.1094 0-0.91406-0.28125-1.6172-0.84375-2.1094-0.55469-0.48828-1.3398-0.73438-2.3594-0.73438z"/>
  </symbol>
  <symbol id="m" overflow="visible">
   <path d="m2.3594-15.312h4.8906v15.031c0 2.0508-0.49609 3.6172-1.4844 4.7031-0.98047 1.082-2.4062 1.625-4.2812 1.625h-2.4219v-3.2188h0.85938c0.92578 0 1.5625-0.21094 1.9062-0.625 0.35156-0.41797 0.53125-1.2461 0.53125-2.4844zm0-5.9688h4.8906v4h-4.8906z"/>
  </symbol>
  <symbol id="l" overflow="visible">
   <path d="m14.719-14.828v3.9844c-0.65625-0.45703-1.3242-0.79688-2-1.0156-0.66797-0.21875-1.3594-0.32812-2.0781-0.32812-1.3672 0-2.4336 0.40234-3.2031 1.2031-0.76172 0.79297-1.1406 1.9062-1.1406 3.3438 0 1.4297 0.37891 2.543 1.1406 3.3438 0.76953 0.79297 1.8359 1.1875 3.2031 1.1875 0.75781 0 1.4844-0.10938 2.1719-0.32812 0.6875-0.22656 1.3203-0.56641 1.9062-1.0156v4c-0.76172 0.28125-1.5391 0.48828-2.3281 0.625-0.78125 0.14453-1.5742 0.21875-2.375 0.21875-2.7617 0-4.9219-0.70703-6.4844-2.125-1.5547-1.4141-2.3281-3.3828-2.3281-5.9062 0-2.5312 0.77344-4.5039 2.3281-5.9219 1.5625-1.4141 3.7227-2.125 6.4844-2.125 0.80078 0 1.5938 0.074219 2.375 0.21875 0.78125 0.13672 1.5547 0.35156 2.3281 0.64062z"/>
  </symbol>
 </defs>
 <g>
  <path d="m466.16 353.82c-1.7812 2.7422-3.8086 5.2422-5.9922 7.4609h15.914c-0.80078-0.63281-1.5977-1.2695-2.3789-1.9023-2.4805-2.0273-4.9102-3.9414-7.543-5.5586z"/>
  <path d="m283.81 261.99c17.629 0 28.543 3.7734 35.293 8.082h113.96c0.17969 0 0.33203 0.085937 0.50391 0.10156 0.52734-0.023437 1.043-0.10156 1.5664-0.10156 8.2617 0 15.934 3.1875 22.32 8.6406h5.9375c-9.1953-9.3984-15.098-23.789-15.098-39.93 0-0.33203 0.035156-0.63672 0.039062-0.96875-13.637 7.9258-47.863 23.609-91.09 12.449-3.1367-0.8125-6.3164-1.6641-9.543-2.5195-18.891-5.0352-38.41-10.242-57.152-10.387-33.422-0.14062-62.332 4.543-98.582 16.219 1.6758 6.4297 4.4844 12.137 8.0469 16.496h19.719c11.555-5.5391 25.688-8.3594 41.59-8.0703 0.77344 0.011719 1.3906 0.64844 1.3711 1.4219-0.011718 0.77344-0.59766 1.3008-1.4219 1.3789-12.719-0.19141-24.328 1.6289-34.301 5.2695h86.246c-6.457-2.9844-15.773-5.2812-29.395-5.2812-0.77734 0-1.3984-0.62891-1.3984-1.3984-0.015625-0.77734 0.60938-1.4023 1.3867-1.4023z"/>
  <path d="m488.5 198.79c-16 0-29.02 17.941-29.02 40 0 22.059 13.016 40.012 29.02 40.012s29.02-17.949 29.02-40.012c0-22.059-13.016-40-29.02-40zm-2.5039 68.98c-0.10156 0-0.20312-0.011719-0.30859-0.035156-9.375-2.1016-16.18-14.211-16.18-28.805 0-0.77734 0.62891-1.3984 1.3984-1.3984 0.77344 0 1.3984 0.62109 1.3984 1.3984 0 13.074 6.0156 24.281 13.988 26.066 0.75781 0.16797 1.2305 0.91797 1.0586 1.6758-0.13281 0.65625-0.71875 1.0977-1.3555 1.0977zm2.9102-38.836c-3.3164 0-6.1133 5.3047-6.1133 11.582 0 2.6875 0.49219 5.2148 1.4219 7.2852 0.3125 0.70703 0 1.5352-0.70703 1.8477-0.70703 0.33203-1.5273 0-1.8555-0.70703-1.0859-2.4375-1.6641-5.3477-1.6641-8.4297 0-8.0625 3.9141-14.379 8.9141-14.379 4.9883 0 8.8945 6.3164 8.8945 14.379 0 3.1914-0.64844 6.3281-1.8359 8.8203-0.23438 0.50781-0.73828 0.80469-1.2656 0.80469-0.20312 0-0.40234-0.042969-0.59766-0.13281-0.69531-0.33594-0.99609-1.1641-0.66016-1.8633 1.0078-2.1289 1.5625-4.832 1.5625-7.6211 0-6.2812-2.7891-11.586-6.0938-11.586zm4.6094 38.098c-0.19141 0.09375-0.39062 0.13281-0.59375 0.13281-0.52734 0-1.0312-0.30078-1.2695-0.80469-0.33203-0.69922-0.027344-1.5352 0.67188-1.8633 4.9727-2.3359 8.0703-6.1992 10.367-12.926 0.25391-0.72656 1.0312-1.1094 1.7734-0.875 0.72656 0.25391 1.1211 1.0547 0.86719 1.7734-2.5234 7.418-6.1641 11.906-11.816 14.562zm12.551-25.258c-0.023437 0-0.042968 0-0.066406-0.003907-0.77344-0.035156-1.3672-0.6875-1.332-1.4609 0.023437-0.44922 0.023437-0.90234 0.023437-1.3711 0-14.52-7.2695-26.324-16.199-26.324-6.0352 0-11.715 5.7188-14.453 14.566-0.23437 0.73828-1.0312 1.1484-1.7539 0.91797-0.73828-0.23047-1.1484-1.0117-0.92578-1.7539 3.1641-10.199 9.7266-16.531 17.137-16.531 10.477 0 19 13.066 19 29.125 0 0.51562 0 1.0117-0.023438 1.5078-0.046875 0.74219-0.66016 1.3281-1.4062 1.3281z"/>
  <path d="m488.5 290c-0.62109 0-1.2383-0.089844-1.8555-0.11719-0.066406 0-0.11719 0.035156-0.18359 0.035156h-19.609c1.0547 1.7188 2.0117 3.5234 2.8906 5.4023 8.625-1.0547 18.66-1.2617 30.34-0.63281 1.7734-3.6953 3.8906-7.1016 6.3281-10.109-5.4062 3.4336-11.473 5.4219-17.91 5.4219z"/>
  <path d="m464.15 321.28c0-22.059-13.02-40.008-29.023-40.008s-29.023 17.941-29.023 40.008c0 22.055 13.02 40 29.023 40 16 0 29.023-17.945 29.023-40zm-28.625-9.6992c-3.3164 0-6.1133 5.2188-6.1133 11.395 0 2.6133 0.50391 5.1523 1.418 7.1523 0.32422 0.69922 0.011719 1.5273-0.69531 1.8477-0.6875 0.32031-1.5273 0.011719-1.8555-0.6875-1.0859-2.3984-1.668-5.2695-1.668-8.3086 0-7.9648 3.9141-14.195 8.9141-14.195 4.9883 0 8.8945 6.2344 8.8945 14.195 0 3.1914-0.63281 6.1992-1.8359 8.707-0.24219 0.50391-0.74609 0.80078-1.2656 0.80078-0.20312 0-0.41016-0.042969-0.60547-0.14062-0.69531-0.33203-0.99219-1.1719-0.65625-1.8711 1.0117-2.1016 1.5625-4.7617 1.5625-7.4922 0-6.1875-2.7891-11.402-6.0938-11.402zm4.6094 37.535c-0.19141 0.089844-0.39062 0.12891-0.58984 0.12891-0.52734 0-1.0352-0.30859-1.2695-0.8125-0.33203-0.69922-0.023438-1.5391 0.67578-1.8594 4.9766-2.3203 8.0703-6.125 10.359-12.73 0.25781-0.73438 1.0586-1.125 1.7812-0.86328 0.72656 0.25391 1.1133 1.0547 0.86328 1.7812-2.5586 7.4023-6.0898 11.688-11.82 14.355zm-5.0234-56.402c10.477 0 19 12.875 19 28.711 0 0.50391 0 0.99609-0.023437 1.4766-0.039063 0.74609-0.65625 1.332-1.3984 1.332h-0.066406c-0.77344-0.042969-1.3672-0.69922-1.332-1.4688 0.023437-0.4375 0.023437-0.88672 0.023437-1.3438 0-14.297-7.2695-25.91-16.199-25.91-6.043 0-11.723 5.6211-14.461 14.32-0.23047 0.73438-0.99609 1.1602-1.7539 0.91797-0.73828-0.23047-1.1484-1.0195-0.91406-1.7578 3.1602-10.043 9.7227-16.277 17.125-16.277zm-2.4922 57.137c-0.10156 0-0.20312-0.011718-0.30078-0.035156-9.3789-2.0781-16.184-14.012-16.184-28.391 0-0.77734 0.62891-1.3984 1.3984-1.3984 0.77344 0 1.3984 0.62109 1.3984 1.3984 0 12.863 6.0078 23.902 13.984 25.66 0.75781 0.16406 1.2305 0.90625 1.0625 1.6641-0.13281 0.65625-0.71484 1.1016-1.3594 1.1016z"/>
  <path d="m162.16 361.28h247.93c-3.2695-3.3281-6.1328-7.2617-8.457-11.703-8.9336 3.7188-16.152 4.9883-22.574 4.9883-5.8594 0-11.09-1.0078-16.457-2.0312-9.4062-1.8125-19.129-3.6719-33.73-0.63281-0.74609 0.12891-1.5-0.33203-1.6523-1.082-0.16406-0.75781 0.33203-1.5 1.082-1.6641 15.148-3.1523 25.602-1.1484 34.828 0.62109 11.301 2.168 21.117 3.9805 37.301-2.7227-1.3281-2.8906-2.4414-5.9531-3.3086-9.1562-5.8203-0.83984-12.02-3.2461-18.082-5.6914-4.5547-1.8359-9.2578-3.7305-13.699-4.8906-14.363-3.7734-31.793-4.5586-47.812-2.168-14.461 2.1562-26.656 6.3125-39.57 10.707-17.82 6.0703-36.238 12.348-61.738 13.43-7.918 0.33984-15.625 0.59766-23.156 0.59766-18.289 0-35.547-1.5625-52.344-7.2852 4.5938 11.137 12.57 18.684 21.445 18.684zm118.53-11.355c0.42188-0.65625 1.2812-0.83984 1.9336-0.42578 7.2969 4.6016 15.023 3.1523 20.66 2.0898 1.4102-0.26172 2.6719-0.49219 3.7305-0.59766 0.6875-0.10156 1.457 0.48047 1.5273 1.25 0.085937 0.77734-0.47656 1.457-1.25 1.5391-0.99609 0.10156-2.1797 0.32031-3.4961 0.57031-2.6758 0.50391-5.9805 1.125-9.5859 1.125-4.1445 0-8.6875-0.82812-13.086-3.6133-0.65234-0.41406-0.84375-1.2773-0.43359-1.9375z"/>
  <path d="m276.82 303.2c-9.9023 1.1367-19.207 1.707-28.078 1.707-15.238 0-29.18-1.6875-42.688-5.0977-10.84-2.7344-45.348-10.316-64.539-1.6758-3.0508 6.5977-4.8906 14.59-4.8906 23.145 0 6.3555 1.0312 12.402 2.8008 17.809 23.945 8.707 48.988 8.6055 76.668 7.4023 25.098-1.0586 43.332-7.2734 60.969-13.277 13.031-4.4414 25.34-8.6406 40.051-10.832 16.391-2.457 34.223-1.6406 48.934 2.2188 4.6133 1.2031 9.4062 3.1406 14.039 5 5.5 2.2188 11.137 4.4414 16.328 5.3828-0.95703-4.3633-1.5117-8.9609-1.5117-13.703 0-16.191 5.9453-30.613 15.18-40.008l-212.71 0.007813c-0.011719 0-0.015626 0.003906-0.027344 0.003906-0.003906 0-0.015625-0.003906-0.027344-0.003906h-35.145c-7.2734 0-13.938 5.0781-18.641 13.031 19.633-6.793 49.824-0.58984 63.219 2.7891 21.027 5.3047 43.199 6.3672 69.758 3.3281 0.75781-0.089843 1.4688 0.46094 1.5508 1.2266 0.082031 0.76562-0.46875 1.457-1.2344 1.5469zm-68.594 24.148c-9.9219-2.1992-15.613-0.69922-21.117 0.76562-3.3594 0.88672-6.5195 1.7305-10.445 1.7422h-0.12891c-13.43 0-24.41-7.8867-24.871-8.2266-0.62109-0.46094-0.76562-1.332-0.30859-1.9609 0.44922-0.62109 1.3203-0.76562 1.9531-0.30859 0.10547 0.078125 10.734 7.6875 23.23 7.6875h0.11719c3.5664-0.011719 6.5625-0.8125 9.7344-1.6523 5.5547-1.4688 11.867-3.1523 22.445-0.78906 0.75781 0.17188 1.2305 0.91797 1.0586 1.6758-0.16797 0.75781-0.90625 1.2422-1.668 1.0664zm102.06-30.168c19.266-6.2656 48.77-8.6875 71.27 0.023437 0.72266 0.28516 1.082 1.0938 0.80469 1.8125-0.21875 0.55859-0.74609 0.89453-1.3047 0.89453-0.16797 0-0.33984-0.035156-0.50391-0.10156-21.855-8.4688-50.602-6.082-69.402 0.023437-0.73438 0.26172-1.5234-0.16406-1.7656-0.89453-0.23438-0.72656 0.16406-1.5156 0.90234-1.7578z"/>
  <path d="m534.36 281.29c-15.992 0-29.012 17.941-29.012 40.008 0 22.062 13.016 40 29.012 40 16 0 29.02-17.938 29.02-40 0-22.066-13.02-40.008-29.02-40.008zm-2.4961 68.605c-0.10156 0-0.20313-0.011719-0.30078-0.035157-9.3789-2.0781-16.184-14.035-16.184-28.438 0-0.76562 0.62891-1.3984 1.3984-1.3984 0.77344 0 1.3984 0.63281 1.3984 1.3984 0 12.898 6.0078 23.941 13.984 25.703 0.75781 0.16406 1.2305 0.90625 1.0625 1.6641-0.14062 0.66016-0.71875 1.1055-1.3594 1.1055zm2.9062-38.32c-3.3164 0-6.1133 5.2305-6.1133 11.418 0 2.6484 0.49219 5.1289 1.418 7.1641 0.32422 0.71094 0.011719 1.5391-0.69531 1.8594-0.6875 0.32031-1.5273 0.011719-1.8555-0.69922-1.0938-2.3984-1.668-5.2812-1.668-8.3203 0-7.9727 3.9141-14.219 8.9141-14.219 4.9883 0 8.8945 6.2422 8.8945 14.219 0 3.1914-0.63281 6.2109-1.8359 8.7188-0.24219 0.50391-0.74609 0.80078-1.2656 0.80078-0.20312 0-0.41016-0.042969-0.60547-0.14062-0.69531-0.33203-0.99219-1.1719-0.65625-1.8711 1.0117-2.1016 1.5625-4.7617 1.5625-7.5039-0.003907-6.1992-2.793-11.426-6.0938-11.426zm4.6016 37.594c-0.19141 0.089844-0.39062 0.12891-0.58984 0.12891-0.52734 0-1.0352-0.30859-1.2695-0.8125-0.33203-0.69922-0.023437-1.5391 0.67578-1.8594 4.9727-2.3086 8.0625-6.125 10.359-12.75 0.25781-0.73438 1.0547-1.125 1.7812-0.86328 0.72656 0.25391 1.1133 1.0547 0.86328 1.7812-2.5195 7.3164-6.168 11.746-11.82 14.375zm12.562-24.922h-0.066406c-0.77344-0.042969-1.3672-0.69922-1.332-1.4688 0.023438-0.4375 0.023438-0.88672 0.023438-1.3555 0-14.309-7.2695-25.945-16.199-25.945-6.043 0-11.723 5.6328-14.461 14.352-0.23047 0.73438-0.99609 1.1484-1.7539 0.90625-0.73828-0.23047-1.1484-1.0195-0.91406-1.7539 3.1602-10.062 9.7227-16.309 17.129-16.309 10.477 0 19 12.898 19 28.746 0 0.51562 0 1.0078-0.023437 1.4883-0.042969 0.75391-0.66406 1.3398-1.4023 1.3398z"/>
  <path d="m247.32 219.13c-2.9297 0.50391-6.082 0.74609-9.3398 0.74609-13.496 0-28.965-4.0938-39.441-10.605-5.1758 7.3789-8.5 17.922-8.5 29.449 0 4.1992 0.49219 8.2422 1.3008 12.113 36.457-11.723 65.699-16.445 99.223-16.273 19.09 0.14453 38.797 5.4023 57.855 10.484 3.2148 0.85547 6.4023 1.707 9.5195 2.5156 44.07 11.387 78.52-5.7461 90.52-13.043 0.94531-14.488 6.6406-27.254 15.102-35.812l-247.95-0.003906c-0.011719 0-0.023437 0.003906-0.035156 0.003906-5.6914 0-11.004 3.1367-15.305 8.2891 12.461 7.6758 32.148 11.84 46.574 9.3672 0.74609-0.125 1.4883 0.37891 1.6172 1.1484 0.13281 0.76953-0.375 1.4844-1.1406 1.6211zm113.59 6.2422c31.836 8.7148 47.23 1.5195 60.801-4.8398 7.5312-3.5234 14.637-6.8555 23.543-6.8555 0.77344 0 1.3984 0.62109 1.3984 1.3984 0 0.77344-0.62891 1.3984-1.3984 1.3984-8.2812 0-14.805 3.0508-22.355 6.5898-9.3633 4.3789-19.562 9.1602-35.105 9.1602-7.7109 0-16.734-1.1758-27.629-4.1562-0.74609-0.20703-1.1797-0.97266-0.98047-1.7266 0.21094-0.73438 0.96484-1.1602 1.7266-0.96875zm-94.848-11.781c26.605-8.6445 56.129 0.56641 68.738 4.4922 1.5 0.46484 2.7656 0.85547 3.7734 1.1406 0.74609 0.21094 1.1719 0.99219 0.96484 1.7344-0.17188 0.60938-0.73828 1.0195-1.3438 1.0195-0.12891 0-0.25781-0.015624-0.37891-0.054687-1.0312-0.29297-2.3203-0.69531-3.8398-1.1641-12.359-3.8516-41.301-12.863-67.047-4.5039-0.73438 0.24219-1.5273-0.15625-1.7656-0.89453s0.16016-1.5273 0.89844-1.7695z"/>
  <path d="m509.31 361.28c-9.2227-9.3867-15.16-23.812-15.16-39.977 0-8.6289 1.7031-16.754 4.6719-23.891-10.668-0.52734-19.926-0.35156-27.914 0.57031 2.7266 6.7695 4.3125 14.379 4.4141 22.469l0.98047-0.26172c2.75-0.74609 5.6016-1.5117 8.4336-1.8125 0.79688-0.066406 1.4609 0.48047 1.5391 1.25 0.085937 0.77734-0.47656 1.4688-1.25 1.5391-2.6133 0.27344-5.3555 1.0195-8.0039 1.7305l-1.5273 0.41406c-0.078126 0.023437-0.14453 0.035156-0.22266 0.054687-0.33594 10.457-3.1289 20.113-7.6953 28.055 2.8398 1.7422 5.4102 3.7734 7.8945 5.7969 1.7578 1.4336 3.4961 2.8125 5.2734 4.0703h28.566z"/>
 </g>
</svg>
